<svg xmlns="http://www.w3.org/2000/svg" viewBox="0 0 118.62 118.63"><defs><style>.cls-2{fill:#cf9b00;stroke:#cf9b00;stroke-miterlimit:10}</style></defs><g id="Layer_2" data-name="Layer 2"><g id="Layer_1-2" data-name="Layer 1"><circle cx="59.31" cy="59.31" r="59.31" fill="#fceab7"/><path d="M74.7 31.19a20.57 20.57 0 1 0 12.3 23 20.55 20.55 0 0 0-12.31-23zm9.25 26a18.45 18.45 0 1 1-6.82-22.4A18.47 18.47 0 0 1 84 57.22z" class="cls-2"/><path d="M84.51 32.52A24.93 24.93 0 0 0 47.1 65.33l-1.92 1.92a2.16 2.16 0 0 0-2.08.55L29.3 81.6a2.13 2.13 0 0 0-.55 2.09l-1 1a3.25 3.25 0 0 0 0 4.59l.77-.76-.76.77a3.25 3.25 0 0 0 4.59 0l1-1a2.1 2.1 0 0 0 2.09-.55l13.8-13.8a2.16 2.16 0 0 0 .55-2.08l1.92-1.92a24.93 24.93 0 0 0 32.8-37.42zM30.83 87.73a1.11 1.11 0 0 1-1.53 0 1.07 1.07 0 0 1 0-1.53l.76-.77L31.6 87zm3.07-1.53l-1.54-1.53-1.53-1.54L41.56 72.4l3.07 3.07zm12.26-12.27l-3.07-3.06 1.54-1.54 3.07 3.07zm2.3-3.83l-.77-.77-.76-.76L48.5 67c.25.27.47.55.73.81s.54.48.81.73zm27.11 1.1a22.77 22.77 0 1 1 14.06-21 22.76 22.76 0 0 1-14.06 21z" class="cls-2"/><path d="M75.55 46.89a2.18 2.18 0 0 0-2.17 2.17v5.42h-2.16v-9.75a2.17 2.17 0 0 0-2.17-2.17H65.8a2.17 2.17 0 0 0-2.16 2.17v9.75h-2.17V40.4a2.17 2.17 0 0 0-2.17-2.17h-3.24a2.17 2.17 0 0 0-2.17 2.17v15.16A1.08 1.08 0 0 0 55 56.64h24.88A1.08 1.08 0 0 0 81 55.56v-6.5a2.17 2.17 0 0 0-2.16-2.17zM59.3 54.48h-3.24V40.4h3.24zm9.75 0H65.8v-9.75h3.25zm9.75 0h-3.25v-5.42h3.25zM77.72 58.81h-1.09a1.08 1.08 0 0 0 0 2.16h1.09a1.08 1.08 0 0 0 0-2.16zM68 58.81h-1.11a1.08 1.08 0 1 0 0 2.16H68a1.08 1.08 0 0 0 0-2.16zM58.22 58.81h-1.08a1.08 1.08 0 0 0 0 2.16h1.08a1.08 1.08 0 0 0 0-2.16z" class="cls-2"/></g></g></svg>