<svg xmlns="http://www.w3.org/2000/svg" viewBox="0 0 118.62 118.63"><defs><style>.cls-2{fill:#28a0a8;stroke:#28a0a8;stroke-miterlimit:10}</style></defs><g id="Layer_2" data-name="Layer 2"><g id="Layer_1-2" data-name="Layer 1"><circle cx="59.31" cy="59.31" r="59.31" fill="#e2f5f6"/><path d="M59.32 57.84a1 1 0 0 0-1 1v9.22l-7.92 5.28a1.05 1.05 0 0 0 1.17 1.75l7.8-5.21 7.8 5.21a1 1 0 0 0 .58.17 1.07 1.07 0 0 0 .88-.46 1.06 1.06 0 0 0-.29-1.46l-7.92-5.28v-9.17a1 1 0 0 0-1-1zM48.1 54.52h22.44A2.33 2.33 0 0 0 73 52.27v-1.13A5.43 5.43 0 0 0 69.17 46l-3.91-1a1.36 1.36 0 0 1-.65-.35v-2.2a9.08 9.08 0 0 0 2.08-5.84V35a14.75 14.75 0 0 0-.09-9.23V25.56l-.06-.05-.06-.05H65.88a10.5 10.5 0 0 1-3.55-.46c-2.3-.56-4.91-1.18-7.19.47A4.25 4.25 0 0 0 51 29.73a30 30 0 0 0 1 5.8v.87a9.5 9.5 0 0 0 2 5.91v2.27a1.44 1.44 0 0 1-.65.36l-3.91 1a5.41 5.41 0 0 0-3.78 5.18v1.13a2.34 2.34 0 0 0 2.41 2.25zm6-18.48a12.81 12.81 0 0 1 .77-3.52 30.5 30.5 0 0 1 9.7 1.75v2.33a6.93 6.93 0 0 1-1.78 4.71 4.76 4.76 0 0 1-3.46 1.62c-2.78 0-5.22-3-5.22-6.54zm2 8.1a6.2 6.2 0 0 0 3.19.9 6.48 6.48 0 0 0 3.16-.83v.38A2 2 0 0 0 63 45.9l-3.65 2.16-3.63-2.18a2 2 0 0 0 .45-1.29zm14.72 7v1.13a.34.34 0 0 1-.32.15H60.37v-2.55l4.75-2.8 3.49.91a3.28 3.28 0 0 1 2.25 3.16zm-15.7-23.88h.35l.06-.05c1.54-1.26 3.55-.78 5.66-.28a15 15 0 0 0 3.45.56 12.7 12.7 0 0 1 .26 4.93 33 33 0 0 0-11-1.83H53.32l-.06.05v.05a.1.1 0 0 1 0 .05 9.92 9.92 0 0 1-.12-1.31c0-1.14.54-2.47 2-2.47zm-7.34 23.88A3.28 3.28 0 0 1 50 48l3.55-.92 4.69 2.81v2.55H48.1a.34.34 0 0 1-.32-.15z" class="cls-2"/><path d="M50.29 80.55l-3.9-1a1.38 1.38 0 0 1-.65-.36v-2.14a9.15 9.15 0 0 0 2.06-5.85v-1.58a14.6 14.6 0 0 0-.09-9.23v-.06-.05h-.59a10.25 10.25 0 0 1-3.55-.47c-2.31-.55-4.91-1.17-7.19.47a4.25 4.25 0 0 0-3.77 4.55 29.77 29.77 0 0 0 1 5.79V71a9.44 9.44 0 0 0 2 5.91v2.27a1.31 1.31 0 0 1-.65.35l-3.9 1a5.42 5.42 0 0 0-3.79 5.18v1.14a2.34 2.34 0 0 0 2.42 2.24h21.97a2.35 2.35 0 0 0 2.42-2.25v-1.11a5.41 5.41 0 0 0-3.79-5.18zm-9.84 2.1l-3.64-2.18a2 2 0 0 0 .46-1.28v-.45a6.27 6.27 0 0 0 3.19.9 6.41 6.41 0 0 0 3.16-.84v.39a2 2 0 0 0 .48 1.31zm-5.21-12a13 13 0 0 1 .76-3.54 30.71 30.71 0 0 1 9.7 1.76v2.33a7 7 0 0 1-1.78 4.71 4.76 4.76 0 0 1-3.46 1.62c-2.78 0-5.22-3.06-5.22-6.54zm1-8.78h.47c1.54-1.26 3.54-.79 5.66-.28a15.91 15.91 0 0 0 3.45.56 13 13 0 0 1 .25 4.93 32.9 32.9 0 0 0-11-1.83H34.66v.06a8.58 8.58 0 0 1-.12-1.31c0-1.14.53-2.47 2-2.47zM29.23 87a.34.34 0 0 1-.32-.15v-1.12a3.29 3.29 0 0 1 2.25-3.16l3.55-.92 4.69 2.82V87zM52 86.86s-.1.15-.32.15H41.49v-2.54l4.76-2.8 3.49.9A3.29 3.29 0 0 1 52 85.73v1.13zM88 80.55l-3.91-1a1.44 1.44 0 0 1-.65-.36v-2.14a9.1 9.1 0 0 0 2.08-5.84v-1.59a14.75 14.75 0 0 0-.09-9.23v-.06-.05h-.54a10.53 10.53 0 0 1-3.55-.47c-2.3-.55-4.91-1.17-7.19.47a4.25 4.25 0 0 0-3.76 4.55 29.89 29.89 0 0 0 1 5.79V71a9.5 9.5 0 0 0 2 5.91v2.26a1.35 1.35 0 0 1-.65.36l-3.91 1a5.42 5.42 0 0 0-3.78 5.18v1.14A2.33 2.33 0 0 0 67 89.11h22.39a2.34 2.34 0 0 0 2.42-2.25v-1.13A5.41 5.41 0 0 0 88 80.55zm-9.85 2.1l-3.63-2.18a2 2 0 0 0 .48-1.28v-.45a6.3 6.3 0 0 0 3.19.9 6.45 6.45 0 0 0 3.17-.84v.39a2 2 0 0 0 .47 1.31zM73 70.64a13 13 0 0 1 .77-3.53 30.71 30.71 0 0 1 9.7 1.76v2.33a7 7 0 0 1-1.78 4.71 4.76 4.76 0 0 1-3.46 1.62C75.41 77.54 73 74.48 73 71zm1-8.78h.41c1.54-1.26 3.55-.79 5.66-.28a16 16 0 0 0 3.45.56 12.7 12.7 0 0 1 .48 4.7A33 33 0 0 0 73 65H72.42v.06a10.07 10.07 0 0 1-.12-1.31c0-1.14.54-2.47 2-2.47zM67 87a.34.34 0 0 1-.32-.15v-1.12a3.29 3.29 0 0 1 2.25-3.16l3.55-.92 4.69 2.82V87zm22.76-.16s-.11.15-.33.15h-10.2v-2.52l4.77-2.8 3.49.9a3.3 3.3 0 0 1 2.25 3.16z" class="cls-2"/></g></g></svg>