<svg xmlns="http://www.w3.org/2000/svg" viewBox="0 0 118.62 118.63"><defs><style>.cls-2{fill:#62ab29;stroke:#62ab29;stroke-miterlimit:10}</style></defs><g id="Layer_2" data-name="Layer 2"><g id="Layer_1-2" data-name="Layer 1"><circle cx="59.31" cy="59.31" r="59.31" fill="#e3f5d4"/><path d="M86.4 33.88H80a1.09 1.09 0 0 0-.3-.65l-4.59-4.6a1.12 1.12 0 0 0-1.54 0l-1.95 2A16.18 16.18 0 0 0 68 29.06V26.3a1.08 1.08 0 0 0-1.08-1.08H60.4a1.08 1.08 0 0 0-1.09 1.08v2.76a16.37 16.37 0 0 0-3.67 1.53l-2-2a1.11 1.11 0 0 0-1.53 0l-4.6 4.6a1.09 1.09 0 0 0-.3.65h-15a5.44 5.44 0 0 0-5.42 5.42v36.87a5.43 5.43 0 0 0 5.42 5.42h21.38l-1.83 7.32a1.08 1.08 0 0 0 .79 1.31.78.78 0 0 0 .26 0h13a1.09 1.09 0 0 0 1.09-1.09 1.17 1.17 0 0 0 0-.26L65 81.55h21.4a5.42 5.42 0 0 0 5.41-5.42V39.3a5.42 5.42 0 0 0-5.41-5.42zm-34.75 1.9L49.86 34l3.06-3.06 1.79 1.79a1.07 1.07 0 0 0 1.35.14A14.09 14.09 0 0 1 60.63 31a1.08 1.08 0 0 0 .85-1.06v-2.56h4.33v2.53a1.09 1.09 0 0 0 .85 1.09 14 14 0 0 1 4.57 1.89 1.07 1.07 0 0 0 1.35-.14l1.79-1.79L77.44 34l-1.79 1.79a1.06 1.06 0 0 0-.15 1.35 14.11 14.11 0 0 1 1.9 4.57 1.08 1.08 0 0 0 1 .85H81v4.33h-2.55a1.09 1.09 0 0 0-1 .85 14 14 0 0 1-1.9 4.57 1.06 1.06 0 0 0 .15 1.35l1.78 1.79-3.06 3.07-1.79-1.79a1.06 1.06 0 0 0-1.35-.15 14 14 0 0 1-4.57 1.9 1.09 1.09 0 0 0-.85 1.06v2.52h-4.38v-2.53a1.08 1.08 0 0 0-.85-1.06 14 14 0 0 1-3.15-1.11l.38-.22a1.08 1.08 0 0 0 .4-1.48L55 50a1.08 1.08 0 0 0-1.48-.4l-1.83 1a11 11 0 0 0-1.05-.61V48a1.09 1.09 0 0 0-1.09-1.09h-3.24v-4.36h2.53a1.08 1.08 0 0 0 1.06-.85 13.87 13.87 0 0 1 1.89-4.57 1.07 1.07 0 0 0-.14-1.35zm2.16 22a6.72 6.72 0 0 1 0 2.1 1.08 1.08 0 0 0 .54 1.09l1.49.86-2.17 3.75-1.49-.86a1.09 1.09 0 0 0-1.21.09 7.64 7.64 0 0 1-1.82 1 1.09 1.09 0 0 0-.67 1v1.72h-4.33v-1.7a1.07 1.07 0 0 0-.68-1 7.73 7.73 0 0 1-1.82-1.06 1.07 1.07 0 0 0-1.2-.08l-1.5.86-2.16-3.75 1.49-.87a1.07 1.07 0 0 0 .53-1.08 6.72 6.72 0 0 1 0-2.1 1.07 1.07 0 0 0-.53-1.08l-1.49-.87L39 52.05l1.5.86a1.06 1.06 0 0 0 1.2-.09 8.05 8.05 0 0 1 1.82-1 1.07 1.07 0 0 0 .68-1v-1.77h4.33v1.72a1.08 1.08 0 0 0 .67 1 7.35 7.35 0 0 1 1.8 1.06 1.09 1.09 0 0 0 1.21.08l1.49-.86 2.17 3.75-1.49.87a1.06 1.06 0 0 0-.54 1.08zm.39 30.3l1.63-6.5h7l1.62 6.5zm35.45-11.95a3.25 3.25 0 0 1-3.25 3.25H32.23A3.24 3.24 0 0 1 29 76.13v-1.08h60.65zm0-3.25H29V39.3a3.25 3.25 0 0 1 3.25-3.25h16.6l.66.66A16.34 16.34 0 0 0 48 40.38h-2.77a1.08 1.08 0 0 0-1.08 1.09v5.41h-1.09A1.08 1.08 0 0 0 42 48v2.1a10.05 10.05 0 0 0-1.06.61l-1.82-1a1.08 1.08 0 0 0-1.48.4l-3.25 5.63a1.09 1.09 0 0 0 .39 1.48l1.83 1v1.23l-1.83 1a1.08 1.08 0 0 0-.39 1.47l3.25 5.64a1.09 1.09 0 0 0 1.46.44l1.82-1a8.56 8.56 0 0 0 1.06.61v2.1a1.08 1.08 0 0 0 1.08 1.09h6.5a1.09 1.09 0 0 0 1.09-1.09v-2.1A11 11 0 0 0 51.7 67l1.83 1a1.08 1.08 0 0 0 1.48-.4l3.25-5.63a1.08 1.08 0 0 0-.4-1.48L56 59.41v-.35a15.55 15.55 0 0 0 3.26 1.31v2.76a1.09 1.09 0 0 0 1.09 1.09h6.5A1.09 1.09 0 0 0 68 63.13v-2.76a15.89 15.89 0 0 0 3.67-1.52l1.93 1.95a1.11 1.11 0 0 0 1.53 0l4.6-4.59a1.1 1.1 0 0 0 0-1.54l-2-2A15.71 15.71 0 0 0 79.25 49h2.76a1.09 1.09 0 0 0 1.14-1v-6.5a1.09 1.09 0 0 0-1.09-1.09H79.3a15.89 15.89 0 0 0-1.52-3.67l.66-.66h8a3.26 3.26 0 0 1 3.25 3.25z" class="cls-2"/><path d="M63.65 36.05a8.67 8.67 0 1 0 8.66 8.67 8.67 8.67 0 0 0-8.66-8.67zm0 15.17a6.5 6.5 0 1 1 6.5-6.5 6.5 6.5 0 0 1-6.5 6.5zM46.31 53.38a5.42 5.42 0 1 0 5.42 5.42 5.42 5.42 0 0 0-5.42-5.42zm0 8.67a3.25 3.25 0 1 1 3.25-3.25 3.25 3.25 0 0 1-3.25 3.25z" class="cls-2"/></g></g></svg>