<svg xmlns="http://www.w3.org/2000/svg" viewBox="0 0 601.94 95.61"><defs><style>.cls-1{fill:#0d202f}.cls-2{fill:#7ac143}</style></defs><g id="Layer_2" data-name="Layer 2"><g id="Layer_1-2" data-name="Layer 1"><path class="cls-1" d="M149.04 50.28l2.54 5.07h20.74v-15.8h-28.65l3.22 6.44 2.15 4.29zM107.48 28.33C107.48 11.8 95.76.71 78.32.71H41.26V94.9h16.51V16.51H77.5c8.94 0 13.47 4 13.47 11.93S86.44 40.38 77.5 40.38l-12.92.17L92.83 94.9h18.89L90.43 54.19c10.67-4.19 17.05-13.61 17.05-25.86z"/><path class="cls-1" d="M118.82 94.9h61.14V79.11h-44.63v-62.6h44.63V.71h-61.14V94.9zM242.66 47.1c-4.43-3.69-8.85-5.38-17.46-6.66L216.08 39a22 22 0 0 1-10-4.06c-1.1-.92-2.56-2.66-2.56-7.1 0-10.69 9-12.29 14.42-12.29 8.16 0 12.29 2.29 17.06 6.52l3.57 3.17 11.34-11.34-4.1-3.57C237.36 3 229.39 0 218.28 0c-18.93 0-31.16 11-31.16 28.09 0 8.13 2.83 14.64 8.36 19.29 4.36 3.78 10.27 6.24 17.53 7.32l9.81 1.54c6.44 1 7.64 1.63 9.58 3.27 2.39 2.12 2.89 5.53 2.89 8 0 10.7-10.36 12.29-16.53 12.29-9.07 0-13.81-2-20.28-8.43l-3.58-3.59-11.64 11.67 3.57 3.55c8.94 8.94 18.09 12.58 31.57 12.58 20.29 0 33.4-11.11 33.4-28.32a25.88 25.88 0 0 0-9.14-20.16zM292.19 0a34.51 34.51 0 0 0-24.6 10.1c-9.28 9.28-9.28 18.78-9.28 37.7s0 28.44 9.27 37.71a35 35 0 0 0 49.21 0c9.27-9.27 9.27-18.78 9.27-37.71s0-28.42-9.27-37.7A34.56 34.56 0 0 0 292.19 0zm0 79.81a17.28 17.28 0 0 1-12.36-5c-4.52-4.52-5-9.46-5-27s.49-22.48 5-27a17.76 17.76 0 0 1 24.71 0c4.52 4.52 5 9.47 5 27s-.49 22.48-5 27a17.25 17.25 0 0 1-12.35 5zM355.1.71h-16.51V94.9h61.14V79.11H355.1V.71zM419.12 94.9h4.89M427.82 94.9l2.14-6.27L458.8.71h-17.41l-20.02 61.1-.18-.54-.02.07L401.52.71h-17.41l30.95 94.19h6.41M492.14 50.28l2.53 5.07h20.75v-15.8h-28.65l3.21 6.44 2.16 4.29z"/><path class="cls-1" d="M460.89 94.9h61.14V79.11h-44.64v-62.6h44.64V.71h-61.14V94.9zM597.7 28.33C597.7 11.8 586 .71 568.55.71h-37.07V94.9H548V16.51h19.73c8.94 0 13.47 4 13.47 11.93s-4.53 11.94-13.47 11.94l-13.25-.08 7.1 13.14 21.48 41.46h18.88l-21.28-40.71C591.32 50 597.7 40.58 597.7 28.33z"/><path class="cls-2" d="M0 74.89h20.63v20.02H0zM0 31.25h20.63v20.02H0z"/></g></g></svg>